<svg xmlns="http://www.w3.org/2000/svg" data-name="Layer 1" viewBox="0 0 100 125" x="0px" y="0px"><title>28</title><path d="M50,5A45,45,0,1,0,95,50,45,45,0,0,0,50,5Zm-.16447,73.15632c-4.79193,2.31629-12.20241.324-10.90916-4.50191l6.98914-26.084c2.445-9.12428-4.27846-6.13253-7.29-4.81051a18.61558,18.61558,0,0,1,7.38477-6.44433c4.792-2.31629,12.20241-.324,10.90916,4.50191L49.93029,66.90214c-2.445,9.12421,4.27852,6.13253,7.29,4.81051A18.61627,18.61627,0,0,1,49.83553,78.15632ZM56.3106,31.0068a5.06395,5.06395,0,1,1,5.06391-5.06392A5.06389,5.06389,0,0,1,56.3106,31.0068Z"/><text x="0" y="115" fill="#000000" font-size="5px" font-weight="bold" font-family="'Helvetica Neue', Helvetica, Arial-Unicode, Arial, Sans-serif">Created by Hrbon</text><text x="0" y="120" fill="#000000" font-size="5px" font-weight="bold" font-family="'Helvetica Neue', Helvetica, Arial-Unicode, Arial, Sans-serif">from the Noun Project</text></svg>