<?xml version="1.0" encoding="utf-8"?>
<!-- Generator: Adobe Illustrator 24.0.3, SVG Export Plug-In . SVG Version: 6.00 Build 0)  -->
<svg version="1.1" id="Layer_1" xmlns="http://www.w3.org/2000/svg" xmlns:xlink="http://www.w3.org/1999/xlink" x="0px" y="0px"
	 viewBox="0 0 329 97" style="enable-background:new 0 0 329 97;" xml:space="preserve">
<style type="text/css">
	.st0{fill:#6EA948;}
	.st1{fill:#333333;}
	.st2{fill:none;}
</style>
<g>
	<path class="st0" d="M8.77,75.21c2.19,1.38,6.33,2.99,10.12,2.99c3.91,0,6.1-1.73,6.1-5.06c0-2.88-1.61-4.72-6.56-7.59
		C9.23,60.38,7.04,54.51,7.04,49.33c0-10.12,7.25-17.71,18.52-17.71c4.72,0,8.4,1.15,11.39,2.53L34.3,45.19
		c-2.19-1.27-4.83-2.3-7.82-2.3c-3.79,0-5.64,2.3-5.64,4.83c0,2.53,1.27,3.91,6.56,7.02c8.28,4.72,11.39,10.58,11.39,17.02
		c0,11.5-8.28,17.71-19.9,17.71c-4.72,0-10.24-1.27-12.88-3.22L8.77,75.21z"/>
	<path class="st0" d="M40.97,88.78c0.23-4.95,0.46-11.27,0.46-16.68V9.2h15.07v28.98h0.23c2.76-4.02,6.33-6.56,11.73-6.56
		c10.93,0,15.87,12.31,15.87,27.49c0,19.67-7.82,30.59-18.29,30.59c-4.72,0-8.05-1.96-11.04-7.59h-0.35l-0.81,6.67H40.97z
		 M56.49,68.66c0,1.38,0.23,2.76,0.58,3.57c1.27,4.02,3.34,5.17,5.18,5.17c5.06,0,7.13-6.33,7.13-17.14
		c0-9.66-2.19-15.99-7.25-15.99c-2.3,0-4.26,2.42-5.06,5.18c-0.34,0.92-0.58,2.42-0.58,3.45V68.66z"/>
	<path class="st0" d="M129.06,60.49c0,23.46-13,29.21-21.51,29.21c-13.46,0-21.51-10.58-21.51-28.87
		c0-20.24,10.58-29.21,21.74-29.21C121.01,31.62,129.06,42.78,129.06,60.49z M101,60.49c0,9.66,1.5,17.71,6.9,17.71
		c4.83,0,6.1-9.43,6.1-17.71c0-7.71-1.27-17.48-6.33-17.48C102.15,43.01,101,52.78,101,60.49z"/>
	<path class="st0" d="M132.62,9.2h15.07v79.58h-15.07V9.2z"/>
	<path class="st1" d="M171.26,17.36v15.18h11.04v10.7h-11.04v25.65c0,6.56,2.76,8.17,5.75,8.17c1.5,0,2.65-0.12,3.91-0.35
		l0.11,11.73c-2.07,0.58-5.18,1.04-9.2,1.04c-4.37,0-8.17-1.04-10.81-3.56c-3.1-2.99-4.83-7.25-4.83-16.1V43.24h-6.67v-10.7h6.67
		V20.93L171.26,17.36z"/>
	<path class="st1" d="M224.74,60.49c0,23.46-13,29.21-21.51,29.21c-13.46,0-21.51-10.58-21.51-28.87
		c0-20.24,10.58-29.21,21.74-29.21C216.69,31.62,224.74,42.78,224.74,60.49z M196.67,60.49c0,9.66,1.5,17.71,6.9,17.71
		c4.83,0,6.1-9.43,6.1-17.71c0-7.71-1.27-17.48-6.33-17.48C197.82,43.01,196.67,52.78,196.67,60.49z"/>
	<path class="st1" d="M269.36,60.49c0,23.46-13,29.21-21.51,29.21c-13.46,0-21.51-10.58-21.51-28.87
		c0-20.24,10.58-29.21,21.74-29.21C261.31,31.62,269.36,42.78,269.36,60.49z M241.29,60.49c0,9.66,1.5,17.71,6.9,17.71
		c4.83,0,6.1-9.43,6.1-17.71c0-7.71-1.27-17.48-6.33-17.48C242.44,43.01,241.29,52.78,241.29,60.49z"/>
	<path class="st1" d="M272.92,9.2h15.07v79.58h-15.07V9.2z"/>
	<path class="st1" d="M293.39,75.21c2.19,1.38,6.33,2.99,10.12,2.99c3.91,0,6.1-1.73,6.1-5.06c0-2.88-1.61-4.72-6.56-7.59
		c-9.2-5.18-11.39-11.04-11.39-16.22c0-10.12,7.25-17.71,18.52-17.71c4.72,0,8.4,1.15,11.39,2.53l-2.65,11.04
		c-2.19-1.27-4.83-2.3-7.82-2.3c-3.79,0-5.64,2.3-5.64,4.83c0,2.53,1.27,3.91,6.56,7.02c8.28,4.72,11.39,10.58,11.39,17.02
		c0,11.5-8.28,17.71-19.9,17.71c-4.72,0-10.24-1.27-12.88-3.22L293.39,75.21z"/>
</g>
<g>
	<polygon class="st2" points="493.52,386.97 496.32,386.97 496.32,386.97 493.52,386.97 	"/>
</g>
<g>
</g>
<g>
</g>
<g>
</g>
<g>
</g>
<g>
</g>
<g>
</g>
<g>
</g>
<g>
</g>
<g>
</g>
<g>
</g>
<g>
</g>
<g>
</g>
<g>
</g>
<g>
</g>
<g>
</g>
</svg>
