<svg id="ea9c8771-49f8-45ec-8456-d4e49d684a7b" data-name="Layer 1" xmlns="http://www.w3.org/2000/svg" viewBox="0 0 415 369.75"><defs><style>.ba43dbcd-a958-4aff-8fd1-8b303d6e8578{fill:#575756;}.ad91d2db-a590-4820-8532-e69730c79925{fill:#da1a1a;}.a983838e-69a1-4055-b026-601d8fa6df0e{fill:#4d4d4d;}</style></defs><title>synbiocad</title><path class="ba43dbcd-a958-4aff-8fd1-8b303d6e8578" d="M600.78,449.35c13.41,7.42,24.29,17.56,30.63,28.56,6.52,11.31,7.52,22.23,2.81,30.75l-3.36-1.86c4-7.29,3-16.87-2.77-27-6-10.41-16.36-20-29.17-27.13Z" transform="translate(-490.13 -177.88)"/><path class="ba43dbcd-a958-4aff-8fd1-8b303d6e8578" d="M599.14,453.3l3.44,1.7c-8.24,16.7-10.29,35.19-5.77,52.06s15,30,29.48,37.13l-1.7,3.44c-15.52-7.66-26.7-21.71-31.49-39.57S590.48,470.84,599.14,453.3Z" transform="translate(-490.13 -177.88)"/><path class="ba43dbcd-a958-4aff-8fd1-8b303d6e8578" d="M620,418.84c6.78,19,16.4,35.58,27.11,46.79,10.33,10.83,20.32,15.25,28.12,12.46l1.29,3.61c-9.31,3.33-20.74-1.44-32.18-13.42-11.07-11.59-21-28.69-28-48.15Z" transform="translate(-490.13 -177.88)"/><path class="ad91d2db-a590-4820-8532-e69730c79925" d="M545.24,367.55a7.76,7.76,0,0,1,4.51,4.39c2.19,5,.76,13.18-1.07,19.73a4.25,4.25,0,0,1,2.88,0h0c2.1.77,3.84,3.12,5.48,6.38,6.89-4,12.79-6.86,16.89-5.36h0c7.68,2.83,9.75,24,6.24,33.63-2.34,6.41-6.33,5.73-7.93,5.15h0c-4.33-1.6-7.49-6.89-10.25-13.2a4.61,4.61,0,0,1-1.31-.27,22.19,22.19,0,0,1-5.38-3.3c-3.24,5.51-6.69,9.82-10.74,8.34h0c-1.4-.51-3.2-2-3.92-6.06a26.82,26.82,0,0,1-.21-6.38c-4.25,1.7-8.18,2.43-11.4,1.25h0c-6.74-2.5-5.74-14.63-1.74-25.56,4.06-11.13,11.19-21.25,18-18.78Zm-1.62,29.87c2.48-6.87,5.77-18.64,3.32-24.25a4.74,4.74,0,0,0-2.76-2.74h0c-3.88-1.42-10,6-14,16.95s-4,20.18-.07,21.63h0c2.73,1,6.55,0,10.75-1.88a40.92,40.92,0,0,1,1.19-5.34l-.08-.09.38-.88A31.1,31.1,0,0,1,543.62,397.42Zm29.68,31.21h0c.61.22,2.46.89,4-3.32,3.38-9.26.61-27.84-4.43-29.7h0c-2.16-.78-5.82.59-10,2.76a2.73,2.73,0,0,1,1.49.11h0C568.4,400,568.81,409,567,414a7.54,7.54,0,0,1-2.05,3.25C567.32,422.78,570,427.43,573.3,428.63Zm-18.9-29c-1.3-2.64-2.61-4.59-3.89-5.06h0c-.23-.08-.75-.27-1.65.48a10.3,10.3,0,0,0-2.33,3.33c-.42,1.15-.78,2.07-1,2.7.63.7,1.4,1.53,2.27,2.44,1.79-1,3.57-2.07,5.31-3.1Zm4.49,2.5a13.55,13.55,0,0,1,2.41-2.93c-1,.53-1.95,1.09-2.95,1.67Q558.62,401.51,558.89,402.15Zm4.67,12a7.74,7.74,0,0,0,.51-1.13c1.77-4.86.51-10.78-.63-11.56-.72.36-1.92,2.22-3.13,4.3l1,2.69C562.06,410.3,562.8,412.23,563.56,414.12Zm-6.64-8.64c-.41-1-.82-2.05-1.24-3l-1,.62c-1.54.92-3.1,1.84-4.65,2.73,1.41,1.4,2.94,2.87,4.45,4.22.36-.66.71-1.29,1-1.89C556,407.2,556.45,406.31,556.92,405.48Zm3.5,9.07c-.66-1.66-1.3-3.35-1.94-5,0-.1-.08-.2-.11-.3l-.2.37c-.44.82-.89,1.64-1.34,2.45A28.15,28.15,0,0,0,560.42,414.55ZM545,405.06l-.56-.6c-.08.34-.15.67-.23,1Zm7.9,7.69c-2-1.76-4-3.69-5.69-5.39-1.21.66-2.42,1.28-3.61,1.86a26.11,26.11,0,0,0,.06,7.26c.36,2.07,1.05,3.38,2,3.72h0C547.63,420.93,550.44,417,552.9,412.75Z" transform="translate(-490.13 -177.88)"/><circle class="ad91d2db-a590-4820-8532-e69730c79925" cx="34.72" cy="189.18" r="2.73"/><path class="ad91d2db-a590-4820-8532-e69730c79925" d="M526.54,369.67a3.11,3.11,0,0,1-3.4-5.22h0a3.11,3.11,0,0,1,3.4,5.21h0Zm-3-4.58h0a2.34,2.34,0,0,0,2.56,3.92h0a2.35,2.35,0,0,0-2.56-3.93Z" transform="translate(-490.13 -177.88)"/><circle class="ad91d2db-a590-4820-8532-e69730c79925" cx="27.81" cy="207.2" r="2.73"/><path class="ad91d2db-a590-4820-8532-e69730c79925" d="M519.63,387.69a3.11,3.11,0,0,1-3.39-5.22h0a3.11,3.11,0,0,1,3.4,5.21h0Zm-3-4.58h0a2.34,2.34,0,0,0,2.55,3.93h0a2.35,2.35,0,0,0-2.56-3.93Z" transform="translate(-490.13 -177.88)"/><circle class="ad91d2db-a590-4820-8532-e69730c79925" cx="100.96" cy="231.7" r="2.73"/><path class="ad91d2db-a590-4820-8532-e69730c79925" d="M592.16,406.66a3.11,3.11,0,0,1,1.84,4,3.1,3.1,0,0,1-4,1.86h0a3.11,3.11,0,0,1,2.15-5.84h0Zm-1.89,5.11h0a2.32,2.32,0,0,0,1.79-.08,2.28,2.28,0,0,0,1.21-1.32,2.33,2.33,0,0,0-1.39-3h0a2.34,2.34,0,0,0-1.8.07,2.38,2.38,0,0,0-1.21,1.32A2.34,2.34,0,0,0,590.27,411.77Z" transform="translate(-490.13 -177.88)"/><circle class="ad91d2db-a590-4820-8532-e69730c79925" cx="72.76" cy="257.45" r="2.73"/><path class="ad91d2db-a590-4820-8532-e69730c79925" d="M564,432.41a3.12,3.12,0,0,1,1.74,1.61,3.07,3.07,0,0,1,.1,2.38,3.11,3.11,0,0,1-4,1.85h0a3.11,3.11,0,0,1,2.15-5.84h0Zm-1.89,5.12h0a2.35,2.35,0,0,0,2.93-3.19,2.38,2.38,0,0,0-1.32-1.21h0a2.34,2.34,0,0,0-1.62,4.4Z" transform="translate(-490.13 -177.88)"/><circle class="ad91d2db-a590-4820-8532-e69730c79925" cx="102.51" cy="251.08" r="2.73"/><path class="ad91d2db-a590-4820-8532-e69730c79925" d="M593.71,426a3.06,3.06,0,0,1,1.74,1.61,3.1,3.1,0,0,1-3.88,4.23h0A3.11,3.11,0,0,1,593.7,426h0Zm-1.89,5.12h0a2.35,2.35,0,0,0,2.93-3.19,2.36,2.36,0,0,0-1.31-1.21h0a2.35,2.35,0,0,0-3,1.4,2.32,2.32,0,0,0,.08,1.79A2.36,2.36,0,0,0,591.82,431.16Z" transform="translate(-490.13 -177.88)"/><path class="ba43dbcd-a958-4aff-8fd1-8b303d6e8578" d="M545.13,343.34a39.19,39.19,0,0,1,12.31,7.33l50.3,44.07a39.62,39.62,0,0,1,3.68,55.77l-1.8,2.05a39.61,39.61,0,0,1-55.76,3.68l-50.3-44.08a39.63,39.63,0,0,1-3.68-55.76l1.8-2A39.59,39.59,0,0,1,545.13,343.34Zm25.81,107.27a25.94,25.94,0,0,0,10.65,1.52,25.5,25.5,0,0,0,17.65-8.67l1.8-2a25.82,25.82,0,0,0-2.4-36.28l-50.3-44.07a25.74,25.74,0,0,0-36.28,2.39l-1.79,2.05a25.8,25.8,0,0,0,2.39,36.28L563,445.85A25.41,25.41,0,0,0,570.94,450.61Z" transform="translate(-490.13 -177.88)"/><path class="ad91d2db-a590-4820-8532-e69730c79925" d="M641.05,391.29a20.67,20.67,0,0,0,9,2.25c3.75,0,5.72-1.55,5.72-3.9s-1.71-3.53-6-5.08c-6-2.09-9.88-5.4-9.88-10.64,0-6.14,5.13-10.85,13.63-10.85a22.1,22.1,0,0,1,9.19,1.82l-1.82,6.57a17.18,17.18,0,0,0-7.53-1.71c-3.53,0-5.24,1.61-5.24,3.48,0,2.3,2,3.31,6.68,5.08,6.36,2.35,9.35,5.66,9.35,10.74,0,6-4.65,11.17-14.54,11.17A23.59,23.59,0,0,1,639.4,398Z" transform="translate(-490.13 -177.88)"/><path class="ad91d2db-a590-4820-8532-e69730c79925" d="M674.67,373.55l3.9,12.83c.43,1.55,1,3.47,1.28,4.86H680c.38-1.39.81-3.37,1.18-4.86l3.21-12.83h8.71L687,390.76c-3.75,10.37-6.26,14.54-9.2,17.16A15,15,0,0,1,670,411.5l-1.72-6.9a10.19,10.19,0,0,0,3.53-1.39,9.28,9.28,0,0,0,3.37-3.26,2.09,2.09,0,0,0,.43-1.17,3,3,0,0,0-.38-1.34l-9.56-23.89Z" transform="translate(-490.13 -177.88)"/><path class="ad91d2db-a590-4820-8532-e69730c79925" d="M696.53,381.89c0-3.26-.11-6-.22-8.34h7.06l.37,3.58h.16A9.56,9.56,0,0,1,712,373c5.35,0,9.36,3.53,9.36,11.23v15.5H713.2V385.2c0-3.37-1.17-5.67-4.11-5.67a4.34,4.34,0,0,0-4.12,3.05,5.65,5.65,0,0,0-.32,2v15.08h-8.12Z" transform="translate(-490.13 -177.88)"/><path class="ad91d2db-a590-4820-8532-e69730c79925" d="M728.11,364.14a64.64,64.64,0,0,1,10.53-.75c5,0,8,.48,10.64,2a7.86,7.86,0,0,1,4.33,7.06c0,3.21-1.87,6.2-5.93,7.7v.1c4.11,1.13,7.16,4.23,7.16,8.88a9.61,9.61,0,0,1-3.74,7.64c-2.62,2.08-7,3.26-14.17,3.26a64.4,64.4,0,0,1-8.82-.53Zm8.07,13.79h2.68c4.27,0,6.57-1.76,6.57-4.44s-2.08-4.16-5.77-4.16a22.07,22.07,0,0,0-3.48.21Zm0,16a25.16,25.16,0,0,0,3.16.11c3.69,0,6.95-1.39,6.95-5.19,0-3.63-3.26-5.07-7.33-5.07h-2.78Z" transform="translate(-490.13 -177.88)"/><path class="ad91d2db-a590-4820-8532-e69730c79925" d="M768.52,366.28a4.08,4.08,0,0,1-4.39,4.06,4.09,4.09,0,1,1,.06-8.18A4.08,4.08,0,0,1,768.52,366.28Zm-8.4,33.41V373.55h8.13v26.14Z" transform="translate(-490.13 -177.88)"/><path class="ad91d2db-a590-4820-8532-e69730c79925" d="M800.58,386.32c0,9.57-6.78,13.95-13.79,13.95-7.64,0-13.52-5-13.52-13.47s5.56-13.84,14-13.84C795.24,373,800.58,378.47,800.58,386.32Zm-18.92.27c0,4.49,1.87,7.86,5.35,7.86,3.15,0,5.18-3.16,5.18-7.86,0-3.9-1.49-7.86-5.18-7.86C783.11,378.73,781.66,382.74,781.66,386.59Z" transform="translate(-490.13 -177.88)"/><path class="ad91d2db-a590-4820-8532-e69730c79925" d="M832.33,398.67a23.19,23.19,0,0,1-9.25,1.55c-12.45,0-18.86-7.75-18.86-18,0-12.3,8.76-19.14,19.67-19.14a21.17,21.17,0,0,1,8.87,1.61l-1.66,6.46a17.64,17.64,0,0,0-6.84-1.33c-6.47,0-11.49,3.9-11.49,11.92,0,7.21,4.27,11.76,11.54,11.76a20.37,20.37,0,0,0,6.79-1.18Z" transform="translate(-490.13 -177.88)"/><path class="ad91d2db-a590-4820-8532-e69730c79925" d="M846.6,390.44,844,399.69h-8.44l11-36h10.69l11.17,36h-8.77l-2.78-9.25Zm9.14-6.09-2.25-7.65c-.64-2.14-1.28-4.81-1.81-6.95h-.11c-.54,2.14-1.07,4.87-1.66,6.95l-2.14,7.65Z" transform="translate(-490.13 -177.88)"/><path class="ad91d2db-a590-4820-8532-e69730c79925" d="M873.26,364.14a73,73,0,0,1,11-.75c6.84,0,11.27,1.23,14.75,3.85,3.74,2.78,6.09,7.22,6.09,13.58,0,6.89-2.51,11.65-6,14.59-3.8,3.15-9.57,4.65-16.63,4.65a72.26,72.26,0,0,1-9.25-.53Zm8.18,29.4a15.11,15.11,0,0,0,2.84.16c7.37.05,12.18-4,12.18-12.62.06-7.48-4.33-11.43-11.33-11.43a17,17,0,0,0-3.69.32Z" transform="translate(-490.13 -177.88)"/><path class="a983838e-69a1-4055-b026-601d8fa6df0e" d="M853.14,294.43a12,12,0,0,0-.9-16.9l-16.47-14.8-57,63.41L795.24,341a12,12,0,0,0,16.89-.9Z" transform="translate(-490.13 -177.88)"/><path class="a983838e-69a1-4055-b026-601d8fa6df0e" d="M598.32,367.47l29.94-33.31-9.52-8.55-29.93,33.31a6.39,6.39,0,0,0,9.51,8.55Z" transform="translate(-490.13 -177.88)"/><polygon class="a983838e-69a1-4055-b026-601d8fa6df0e" points="250.37 85.21 240.27 93.68 251.85 103.99 265.46 98.77 250.37 85.21"/><polygon class="a983838e-69a1-4055-b026-601d8fa6df0e" points="158.24 153.05 176.14 133.13 147.6 107.48 129.64 127.47 129.82 140.03 129.86 143.12 131.47 144.57 140.98 153.12 141.21 153.32 146.61 153.23 158.24 153.05"/><path class="a983838e-69a1-4055-b026-601d8fa6df0e" d="M827.23,255.05l-1.59-1.42-3.48-3.13-3.21.17-3.87.2-3.2.17-3.13,3.49-1.43,1.58-7.67,8.55-3.18-2.85L733.6,205.29l-1.06-.95,6.11-17.44-10-9-12.83,14.26-5.7,6.35L646,269.83l-8.55,9.51,3.17,2.85,28.54,25.65,1.83,1.64,3-.64,7.26-1.56,42.67-35.82,1.65-1.38,1.65-1.38,11.66-9.79,1.66-1.39.1-.08,10.74,9.66,10.5,9.43,1.77,1.6,10.06,9,3.17,2.85L774,293.19l-6.26,7-1.42,1.58-1.71,1.9,0,.41.15,2.8.21,3.87.17,3.2,3.48,3.13,7,6.25,57-63.41-5.37-4.83Zm-129.8-25a3.19,3.19,0,0,1-.24-4.51l15.67-17.44a3.21,3.21,0,0,1,4.52-.24l1.58,1.42a3.2,3.2,0,0,1,.24,4.52l-15.67,17.44a3.21,3.21,0,0,1-4.52.24Zm9.51,8.55a3.19,3.19,0,0,1-.24-4.51l15.67-17.44a3.21,3.21,0,0,1,4.52-.24l1.59,1.42a3.21,3.21,0,0,1,.24,4.52L713,239.84a3.19,3.19,0,0,1-4.51.24Z" transform="translate(-490.13 -177.88)"/></svg>